<svg xmlns="http://www.w3.org/2000/svg" xmlns:xlink="http://www.w3.org/1999/xlink" width="500" zoomAndPan="magnify" viewBox="0 0 375 374.999991" height="500" preserveAspectRatio="xMidYMid meet" version="1.0"><defs><g/></defs><rect x="-37.5" width="450" fill="#ffffff" y="-37.499999" height="449.999989" fill-opacity="1"/><rect x="-37.5" width="450" fill="#1134d1" y="-37.499999" height="449.999989" fill-opacity="1"/><g fill="#ffffff" fill-opacity="1"><g transform="translate(28.850364, 239.050922)"><g><path d="M 34.265625 24.75 L 22.359375 12.5625 L 22.359375 -31.890625 L 17.734375 -36.390625 L 10.84375 -36.390625 L 10.84375 -46.046875 L 17.734375 -46.046875 L 22.359375 -50.546875 L 22.359375 -95 L 34.265625 -107.171875 L 54.515625 -107.171875 L 54.515625 -97.515625 L 39.296875 -97.515625 L 33.875 -91.953125 L 34 -47.625 L 27.515625 -41.28125 L 34 -34.796875 L 33.875 9.53125 L 39.296875 15.078125 L 54.515625 15.078125 L 54.515625 24.75 Z M 34.265625 24.75 "/></g></g></g><g fill="#ffffff" fill-opacity="1"><g transform="translate(86.402314, 239.050922)"><g><path d="M 41.8125 -14.421875 L 7.671875 -48.6875 L 41.8125 -83.09375 L 48.6875 -76.21875 L 21.296875 -48.6875 L 48.6875 -21.296875 Z M 41.8125 -14.421875 "/></g></g></g><g fill="#ffffff" fill-opacity="1"><g transform="translate(143.432915, 239.050922)"><g/></g></g><g fill="#ffffff" fill-opacity="1"><g transform="translate(172.80426, 239.050922)"><g/></g></g><g fill="#ffffff" fill-opacity="1"><g transform="translate(202.175606, 239.050922)"><g/></g></g><g fill="#ffffff" fill-opacity="1"><g transform="translate(231.567064, 239.050922)"><g><path d="M 15.21875 -14.421875 L 8.328125 -21.296875 L 35.71875 -48.6875 L 8.328125 -76.21875 L 15.21875 -83.09375 L 49.484375 -48.6875 Z M 15.21875 -14.421875 "/></g></g></g><g fill="#ffffff" fill-opacity="1"><g transform="translate(288.589798, 239.050922)"><g><path d="M 3.046875 24.75 L 3.046875 15.078125 L 18.265625 15.078125 L 23.6875 9.53125 L 23.546875 -34.796875 L 30.03125 -41.28125 L 23.546875 -47.625 L 23.6875 -91.953125 L 18.265625 -97.515625 L 3.046875 -97.515625 L 3.046875 -107.171875 L 23.28125 -107.171875 L 35.1875 -95 L 35.1875 -50.546875 L 39.828125 -46.046875 L 46.703125 -46.046875 L 46.703125 -36.390625 L 39.828125 -36.390625 L 35.1875 -31.890625 L 35.1875 12.5625 L 23.28125 24.75 Z M 3.046875 24.75 "/></g></g></g><g fill="#ffffff" fill-opacity="1"><g transform="translate(141.222125, 243.958276)"><g><path d="M 12.28125 0 L 12.28125 -103.96875 L 25.109375 -103.96875 L 25.109375 -48.53125 L 74.203125 -103.96875 L 89.4375 -103.96875 L 50.5 -59.390625 L 90.15625 0 L 74.765625 0 L 41.625 -49.375 L 25.109375 -30.46875 L 25.109375 0 Z M 12.28125 0 "/></g></g></g></svg>